<?xml version="1.0"?><svg width="1600" height="1200" xmlns="http://www.w3.org/2000/svg">
 <title>hibiscus2</title>

 <metadata id="metadata8159">image/svg+xml</metadata>
 <g>
  <title>Layer 1</title>
  <g id="g4206" fill="#cdde87">
   <g id="g4208" fill="#cdde87">
    <g id="g4214" fill="#cdde87">
     <g id="g4216" fill="#cdde87">
      <path id="path4224" d="m1198.577637,1041.876709c6.99939,-0.385254 12.31311,-5.814697 14.57605,-14.898438c1.075073,-4.303955 1.554565,-8.559326 1.554565,-12.723999c0,-31.708313 -27.881958,-58.161255 -34.365356,-61.820068c0.009155,0.013794 0.045898,0.081055 0.045898,0.081055c5.45105,7.68689 7.378052,14.789185 7.378052,21.53186c0,8.308716 -2.928467,16.065308 -5.802368,23.682434c-2.592651,6.86554 -5.087769,13.473572 -5.087769,20.023621c0,3.164795 0.583496,6.315674 2.018677,9.478149c4.156372,9.176392 12.062744,15.062866 19.682251,14.645386m122.01416,27.496948c4.189819,-0.542969 6.920166,-4.819214 6.794922,-10.638306l0,-0.002441c-0.940674,-43.710693 -18.952393,-66.618164 -25.405151,-70.017334c-0.78479,-0.413025 -1.087158,-0.35968 -1.09021,-0.35968c-0.152588,0.111267 -0.42749,1.148438 1.227661,4.134521c9.222778,16.666138 6.220581,28.914612 3.572876,39.722229c-1.969849,8.032715 -3.829346,15.62207 -0.235107,23.812622c4.675781,10.69397 11.076416,13.872681 15.13501,13.348267m-8.382813,-307.73645c24.748657,34.480957 32.450317,57.759766 23.548462,71.170654c-13.061401,19.638428 -45.731812,33.453186 -71.979858,44.553101c-23.896362,10.106934 -44.534424,18.833252 -42.219604,28.234863c1.056641,4.2854 4.678589,7.327332 10.200073,8.566284c9.930908,2.227478 22.995361,-1.661316 33.274902,-9.90271l5.383911,-4.654419c24.739136,-21.970215 90.452393,-80.330811 215.104858,-6.858521c0.223022,0.130005 0.33313,0.343384 0.287109,0.554565c-5.890869,26.408813 -39.449707,40.469482 -94.501709,39.594727c-25.747192,-0.401367 -41.499023,5.997864 -41.853271,12.415527c-0.283936,5.14856 9.922119,11.668457 39.623901,13.097778c14.908936,0.716919 30.5448,-0.918884 47.096802,-2.6521c50.116943,-5.243652 101.941162,-10.665955 141.088623,47.921936c0.115967,0.169373 0.109863,0.373596 -0.012207,0.542969c-0.235229,0.322449 -24.28125,32.037659 -91.67395,5.471069c-30.700684,-12.104614 -39.758423,-10.942139 -42.424316,-9.174133c-2.296631,1.524292 -1.307251,4.310913 -0.775757,5.438599c3.625,7.677734 18.604248,12.844727 35.950073,18.826294c27.405396,9.452515 61.516968,21.216064 73.900513,49.161011c13.327148,30.086426 -11.543457,63.697144 -25.67688,75.279785c-0.210815,0.174072 -0.537476,0.232056 -0.827759,0.148438c-4.620361,-1.324951 -10.199707,-2.32251 -16.661865,-3.478027c-17.938232,-3.206543 -42.506592,-7.598877 -65.022827,-23.469116c-23.77124,-16.749634 -28.718384,-33.951782 -33.955933,-52.163208c-4.507446,-15.675415 -9.16748,-31.884521 -26.64209,-48.488159c-13.452148,-12.76593 -22.372559,-9.946777 -24.787842,-8.779785c-4.623779,2.236694 -6.080444,7.317993 -3.316772,11.566406c38.781128,59.683228 22.14978,72.040649 -3.026367,90.744019c-8.492798,6.308594 -18.11853,13.461914 -26.739624,23.466797c-0.118896,0.132202 -0.305298,0.222778 -0.512939,0.250488c-0.207764,0.027832 -0.436768,-0.013916 -0.595703,-0.111328l-9.882202,-5.72168c-22.45813,-12.884155 -43.67334,-25.053711 -53.146362,-47.256104c-6.364258,-14.90979 1.615479,-32.343872 9.33252,-49.197998c5.545898,-12.106934 10.780273,-23.541016 10.551025,-33.473938c-0.357178,-15.267029 -22.231934,-35.951965 -39.223755,-41.550659c-4.012573,-1.320068 -9.567749,-2.366638 -13.247681,0.157776c-5.121338,3.510498 -10.838013,13.162537 8.428711,38.378906c34.737671,45.474121 0.534424,80.595337 -22.0979,103.839478c-13.394165,13.749756 -23.068726,23.687256 -15.082886,30.255737c0.241211,0.197266 0.268677,0.494263 0.073242,0.716919c-0.198608,0.2229 -0.570923,0.313354 -0.903931,0.21814c-0.800049,-0.229614 -79.953247,-23.362305 -80.392944,-62.801636c-0.259644,-23.457397 15.843384,-46.710815 28.785645,-65.39325c8.715698,-12.585022 16.243652,-23.452759 15.623657,-30.278992c-0.894897,-10.023438 -3.716797,-16.011841 -8.624268,-18.308838c-5.615967,-2.628906 -13.485962,-0.113831 -21.095947,2.322449c-5.041992,1.610168 -9.805908,3.134705 -14.066162,3.306335c-4.474121,0.185669 -8.077515,-2.772705 -8.770752,-7.195129c-0.809326,-5.188049 2.730103,-11.387634 12.416992,-12.740417c0,-0.002258 13.122437,-2.222717 13.122437,-2.222717c34.453735,-6.329651 81.64209,-14.997986 206.835327,41.39978c85.932861,38.713074 137.857544,74.748474 154.333252,107.103943c0.589355,1.160156 1.135986,2.213379 1.450562,2.452637c0.006226,-0.090576 0.158813,-0.283081 0.265747,-0.696045c0.00293,-0.020752 0.045776,-0.21582 0.045776,-0.60083c0,-4.095337 -4.513794,-29.685059 -103.181274,-95.284851c-3.694824,-2.454773 -5.554932,-4.58252 -5.554932,-6.345825c0,-0.426941 0.109985,-0.833008 0.326904,-1.215759c1.92395,-3.39209 12.124023,-3.902649 20.274414,-3.308655l9.625977,1.055664c18.140137,2.150879 55.888794,6.631165 65.69165,0.784241c1.380615,-0.821289 2.113525,-1.793457 2.247803,-2.972168c0.131348,-1.185608 -0.357422,-2.190247 -1.493408,-3.069702c-7.497314,-5.802734 -40.274414,-4.178772 -64.204346,-2.992981l-21.022827,0.819092c-20.005981,0.190186 -98.469116,-5.016296 -116.84729,-33.93335c-2.748291,-4.32489 -2.922363,-8.301697 -0.519043,-11.819153c8.068359,-11.814575 43.774292,-16.297241 69.844971,-19.571167c11.366455,-1.42688 21.181641,-2.658936 25.579102,-4.134583c15.15332,-4.134583 37.550415,-11.819275 37.345703,-16.097778c-0.02124,-0.475647 -0.806274,-0.890808 -1.456543,-1.155334c-10.661255,-4.304016 -64.525146,-2.540649 -86.922119,8.074341c0,0.002197 -12.75293,6.786621 -12.75293,6.786621c-23.554565,13.15564 -55.812744,31.174438 -124.103271,22.8078l-6.205322,-0.526672c-8.0896,-0.561401 -17.263306,-1.197266 -18.860596,-5.605713c-1.569702,-4.32959 2.635498,-13.559326 57.033936,-43.599365c17.764404,-9.814575 48.165649,-38.617798 47.954834,-50.792114c-0.036499,-2.009277 -0.879395,-3.415283 -2.577393,-4.301636c-1.75,-0.911865 -4.208252,-1.102112 -7.30481,-0.563721c-16.219116,2.81665 -49.02356,26.114136 -73.741821,58.843262c-28.739868,38.056274 -64.866943,55.99408 -87.926758,56.889526c-3.001953,0.118469 -4.727539,-0.35498 -5.27417,-1.443115c-1.707031,-3.394531 10.529785,-11.243774 26.706055,-21.153503l9.399902,-5.90271c19.581299,-13.322693 24.626221,-27.213928 33.784912,-52.434814l0.61377,-1.68219c24.537842,-67.437256 42.354126,-91.477234 145.819092,-96.442383c0.293213,-0.013916 0.574097,0.102051 0.717529,0.301636" fill="#000000"/>
     </g>
    </g>
   </g>
  </g>
  <g transform="rotate(-36.9875, 270.088, 409.885)" id="g3876" fill="#89a02c">
   <g id="g3878" fill="#89a02c">
    <g id="g3884" fill="#89a02c">
     <g id="g3886" fill="#89a02c">
      <path id="path3894" d="m330.967773,395.837769c-9.21109,-8.474854 -19.654236,-18.080475 -34.212952,-20.248962c-2.678101,-0.399841 -2.919434,-1.113678 -2.921509,-1.121002l0,-0.007233c0,-0.034302 0.042603,-0.174042 0.283966,-0.385162c3.182098,-2.820831 27.709991,-5.906647 61.907928,16.604004c5.27301,3.473328 8.269318,10.18457 6.678223,14.957977c-1.34317,4.030304 -5.616852,5.482422 -11.722443,3.986115c-6.861908,-1.687592 -13.251801,-7.564819 -20.013214,-13.785522m-82.933319,38.322327c9.087311,-0.865875 32.25235,-0.856201 51.058868,17.901489c6.390015,6.377777 8.95697,13.096252 6.866028,17.977753c-2.009521,4.685059 -8.006378,6.620361 -15.286835,4.93045c-8.179565,-1.896301 -14.263794,-9.108032 -20.707153,-16.741486c-8.719757,-10.331818 -17.74292,-21.004639 -33.333038,-21.500031c1.43512,-0.745697 5.232361,-1.979523 11.40213,-2.568176m-29.529404,79.30368c-3.382874,-3.179047 -6.054504,-5.69342 -6.424042,-8.754639c-0.070526,-0.559326 0.102493,-0.990997 0.544662,-1.356445c2.366211,-1.969818 10.503052,-0.934692 18.84491,3.748138c6.637482,3.726105 22.157104,14.948273 22.870483,38.611847c0.098206,3.392212 -4.326752,9.916992 -9.035919,10.611206c-4.473938,0.657349 -7.950989,-4.160278 -9.791779,-13.56958c-3.184296,-16.292603 -11.173828,-23.805908 -17.008194,-29.290527m-99.046707,-139.837524l-0.012817,0l0.012817,0zm184.557617,-105.554932c-2.955719,11.882019 -5.749054,23.109192 -10.069672,32.673126c-8.205048,18.154205 -15.391388,22.182129 -19.047577,20.116577c-5.010254,-2.830719 -6.001373,-16.785553 1.131805,-34.397644c14.665375,-36.237381 12.967834,-65.586655 -4.781677,-82.637299c-0.160156,-0.15448 -0.382263,-0.18631 -0.570129,-0.083344c-85.470566,46.419479 -59.635605,119.286621 -49.907745,146.717926l2.022491,5.901703c4.066162,13.13797 2.058533,23.369141 -1.73436,27.683899c-2.248779,2.553589 -5.095505,3.203644 -8.236938,1.879028c-7.453369,-3.147278 -8.56189,-21.25235 -9.841217,-42.215179c-1.405151,-23.006348 -3.158493,-51.636993 -14.152847,-70.117523c-7.506866,-12.615448 -26.464935,-19.093704 -57.961151,-19.800156c-0.22641,-0.00499 -0.433472,0.157043 -0.510406,0.402206c-22.755371,71.368378 -9.762115,95.20871 33.1707,145.143127c15.758759,18.323517 15.933975,18.978455 20.440323,35.744446l0.939575,3.478271c1.45433,5.367004 1.023056,9.82901 -1.210907,12.563934c-1.990402,2.433411 -5.343307,3.350922 -8.756104,2.394196c-4.292694,-1.201935 -7.583649,-4.878998 -8.805115,-9.836395c-16.863098,-68.43454 -44.073334,-70.055939 -46.546387,-70.058319c-15.28476,-11.970367 -50.512108,4.562378 -57.78196,10.974396c-0.19841,0.179016 -0.264717,0.493011 -0.153694,0.755493c2.396294,5.690857 14.184898,52.838898 14.302338,53.312256c12.658104,39.617554 24.19252,47.19455 39.112137,53.577148c10.406982,4.454651 19.613892,4.520782 31.78476,0.223206c17.712921,-6.245148 25.26033,2.533936 29.315857,7.248505c1.665695,1.937653 2.870224,3.338348 4.002151,2.229706c0.405777,-0.397369 0.839462,-1.179932 0.615067,-2.658997c-0.794357,-5.261566 -9.492889,-16.324402 -25.638321,-23.35202c-29.358719,-12.79715 -47.327957,-39.813843 -51.757187,-53.834778c-0.894989,-2.833191 -0.937653,-4.405579 -0.67926,-4.935364c0.749756,-1.530701 2.240387,-2.362274 4.433548,-2.467682c11.327499,-0.547028 39.171967,19.064148 58.779266,52.250061c6.281052,10.623871 12.322601,15.438934 17.960876,14.308044c9.225952,-1.851837 13.635956,-18.588318 14.76799,-23.67334c3.764984,-16.912964 -1.055115,-47.91571 -25.871429,-84.209442c-16.986786,-24.858032 -21.779114,-52.981079 -19.043442,-68.591553c0.824539,-4.702271 2.296021,-7.942627 4.143188,-9.122528c0.8116,-0.517639 1.879364,-0.38031 3.171432,0.41452c10.757187,6.608154 31.411072,53.324615 32.581421,69.935852c3.329315,47.398163 16.288391,54.801208 20.181641,55.941833c3.662704,1.07196 7.233337,-0.542114 9.326477,-4.204285c25.587097,-44.930573 17.824158,-78.467224 12.687897,-100.656433c-1.364777,-5.896851 -2.54361,-10.986755 -3.002655,-15.529541c-1.945831,-19.309601 12.354492,-46.247879 18.799957,-51.232208c0.965393,-0.745667 1.738434,-1.005508 2.174103,-0.730865c3.164948,1.994232 3.062347,20.761749 2.223206,32.891571c-0.044922,3.703857 -1.65097,10.8591 -3.506805,19.1427c-4.309753,19.226196 -10.21463,45.558502 -3.314484,56.599182c1.951965,3.122559 4.832977,4.866638 8.561676,5.180603c25.36084,2.139008 45.606598,-47.062103 51.208282,-62.194275l2.127197,-5.850342c5.804504,-16.069336 16.606628,-45.980377 24.342194,-48.533875c1.0271,-0.338562 1.938995,-0.164383 2.793213,0.532135c7.111633,5.813507 -8.871246,34.213715 -15.699005,46.341095l-3.233429,5.904236c-2.304321,4.702332 -4.860504,12.767517 -2.475037,15.711121c1.234192,1.520874 3.474518,1.412842 6.665192,-0.313934c72.069366,-39.028839 100.938995,-25.015137 103.992889,-23.28833c1.334595,0.753082 1.7854,1.27066 1.9646,1.560028c-0.514862,0.034363 -1.567566,-0.088257 -2.714325,-0.223267c-33.865082,-4.088989 -76.347046,12.976166 -126.265472,50.714661c-74.341431,56.204315 -101.649857,142.5625 -111.313568,189.036011c-1.379639,6.591064 1.716995,10.493652 3.11377,11.864746c2.203949,2.168457 4.991028,3.007385 6.93013,2.087463c1.277054,-0.60321 2.046036,-1.915466 2.171814,-3.689026c0.113358,-1.55542 1.087082,-5.124146 3.389359,-6.237915c1.815216,-0.878113 4.089691,-0.041626 6.744293,2.484741c3.197113,3.034302 2.622482,9.375183 1.898666,17.406067c-0.956696,10.599304 -2.146515,23.788757 4.995132,35.575195c9.828369,16.233521 22.847046,25.937378 38.697876,28.83905c21.360687,3.910034 41.130249,-5.985046 47.357758,-11.388916c0.136566,-0.117859 0.221802,-0.294373 0.221802,-0.488281c-0.001801,-0.193726 -0.074707,-0.367798 -0.211151,-0.483093l-1.507813,-1.268127c-5.635864,-4.599426 -16.128235,-13.164917 -16.292755,-51.821045c-0.173035,-41.888672 -29.97345,-70.30127 -45.234894,-73.156219c-7.622192,-1.427673 -12.43573,-4.123505 -14.716553,-8.237091c-1.757751,-3.171661 -2.005493,-7.182251 -0.760529,-12.26236c0.841583,-3.438965 2.54364,-5.752075 5.055176,-6.873108c4.474182,-1.994049 11.468384,-0.095459 18.721008,5.080139c4.736877,3.37793 10.400543,13.120728 16.959015,24.404419c10.618378,18.264526 23.829498,40.996002 41.574677,52.890228c28.93576,19.40271 66.072266,-21.853149 66.443878,-22.272583c0.173035,-0.193787 0.211334,-0.497864 0.091827,-0.738281c-0.119385,-0.242859 -0.365143,-0.363098 -0.600006,-0.291687c-6.778564,2.028442 -11.560394,-9.36792 -18.180664,-25.137878c-11.186676,-26.653717 -28.092224,-66.931122 -70.164215,-66.460205c-23.270233,0.262543 -28.861206,-8.36438 -30.123383,-13.530365c-0.99292,-4.079315 1.674377,-7.510895 4.085419,-9.669556c8.873535,-7.947479 28.406158,-11.761749 39.351318,-4.577209c7.260986,4.766052 15.547363,15.267181 24.322784,26.386383c12.625916,16.000549 25.681091,32.548035 38.253571,35.761292c18.66983,4.776001 32.989075,-3.313721 48.145966,-11.872101l6.665161,-3.716217c0.127991,-0.073578 0.230499,-0.205994 0.277618,-0.368011c0.042542,-0.159515 0.029755,-0.333496 -0.038544,-0.480804c-4.580933,-9.630157 -7.602692,-18.858093 -10.5242,-27.781891c-9.616791,-29.3815 -17.213196,-52.588776 -72.545776,-56.65564c-3.989197,-0.294281 -7.40625,-4.115997 -7.619812,-8.521545c-0.269165,-5.546021 4.472076,-9.855896 12.681244,-11.523895c16.521454,-3.353241 31.842651,2.286163 46.657532,7.734192c17.529205,6.451233 34.086853,12.544342 52.43219,5.040802c17.351959,-7.096375 26.83606,-21.289093 33.760132,-31.647827c2.490021,-3.725983 4.640533,-6.944336 6.778503,-9.353058c0.151489,-0.169159 0.200562,-0.424347 0.128235,-0.650085c-4.617371,-14.49939 -25.425171,-56.272903 -51.584412,-62.591873c-23.613739,-5.698105 -43.449554,12.99324 -59.385834,28.015213c-10.058746,9.47821 -18.744507,17.663635 -25.223969,16.260559c-0.971619,-0.210815 -3.286652,-0.956604 -3.773834,-3.335968c-0.663971,-3.259857 1.834625,-9.988312 17.50592,-23.545807c36.542908,-31.611038 20.141296,-62.5009 19.423676,-63.798523c-0.091736,-0.16925 -0.249939,-0.274658 -0.422852,-0.284576c-52.829041,-3.134903 -62.09787,34.11795 -71.065399,70.14679" fill="#000000"/>
     </g>
    </g>
   </g>
  </g>
  <path id="path7488" d="m282.233551,1037.968262c-17.477814,-13.571777 -16.977081,-51.041443 -49.866745,-37.684265c-31.75444,-3.385681 -39.348404,-40.37262 -24.355911,-62.3125c12.824783,-24.330139 38.084122,-41.188843 48.709503,-66.709534c-25.002426,-12.629395 -37.669434,19.503113 -45.371567,35.952759c-12.153885,23.705994 -24.215103,52.43927 -52.274628,63.087769c-32.409943,9.379761 -20.661316,-40.559998 -46.899727,-31.510559c-26.469933,8.5448 -42.574989,-18.406372 -20.203964,-33.379272c0.464027,-26.716003 3.686241,-55.201721 34.065582,-68.046448c37.532997,-23.70929 87.525856,-29.914307 130.30732,-15.506897c-20.108215,18.154846 -55.295364,7.447388 -75.799911,26.947449c-21.030945,20.57373 13.055649,41.535522 32.132401,23.317383c20.448517,-4.976379 56.190094,-42.309082 68.005402,-14.081116c-10.265747,17.608154 -38.114471,56.282349 2.855286,57.906311c25.883789,-8.53241 28.755371,39.179932 50.64267,15.874023c13.557068,-22.982727 -10.839203,-43.84668 -11.837341,-67.039551c6.454102,-27.392639 14.871399,13.164307 20.102203,22.824951c16.352264,33.132019 52.746368,60.937744 48.510681,100.579651c-11.606476,22.674683 -41.375702,30.485046 -55.040466,52.179626c-15.241699,11.113037 -40.941711,13.317383 -53.681152,-2.39978l0.000366,0zm-22.120819,-279.763672c-50.606995,-6.315491 -106.139893,-29.942627 -123.710114,-77.748169c-12.334091,-26.545349 30.687592,-35.427185 16.369263,-59.139526c-1.656616,-29.575928 40.788269,-48.769043 63.718369,-27.095764c19.156799,18.63562 43.403336,-14.933411 60.670609,10.820862c21.24881,20.657715 12.583984,48.967529 9.741364,73.815247c-0.759583,22.891296 4.92691,45.587708 13.624786,66.89917c-16.742218,6.050232 -22.174194,-31.630432 -33.443787,-42.227966c-9.324677,-17.164856 -22.347946,-45.977051 -48.4953,-37.328796c-17.572556,17.501953 7.596008,40.440918 15.787811,57.559509c6.724976,10.34491 51.778931,31.886108 25.737366,34.445129l0,0l-0.000366,0.000305zm182.539948,-29.330139c-32.525391,14.386536 -59.101685,37.984192 -81.546112,63.692261c24.380249,9.34613 41.605865,-29.133606 64.859253,-14.127991c5.359894,12.19989 -7.667389,27.565186 16.089386,24.951538c30.408691,-9.874329 45.166351,33.726196 12.345062,38.053101c-17.140839,4.575012 -49.631866,-18.574036 -35.692841,9.498657c9.178589,31.215942 -42.286102,24.468079 -48.316223,1.434753c-5.459625,-12.812134 -25.50946,-30.433228 -25.987854,-5.803101c2.427917,23.116089 15.805847,44.746765 30.708984,63.102905c17.832397,19.44574 42.454865,38.652283 71.36972,38.52356c30.960785,-2.692078 51.461975,-30.92926 52.973175,-57.978027c12.251709,-21.505005 46.999237,-17.897339 58.93222,-41.062195c18.250427,-23.225037 16.642517,-62.648804 -12.842773,-77.457092c-18.616333,-18.699341 -27.05835,-54.145813 -62.110107,-49.89563c-13.95105,-0.424255 -27.792633,2.53186 -40.781555,7.067078l-0.000336,0.000183zm-13.042297,-146.422058c-23.46225,2.646118 -27.716278,48.588623 -48.987732,21.540405c-25.408417,-13.567139 -48.227417,11.410278 -60.023438,29.664307c-23.541931,40.173584 -15.932587,89.169678 0.65451,130.174438c13.485992,10.972961 -2.820587,-20.700195 1.857788,-27.458313c2.304169,-16.633484 5.092377,-49.673828 26.515961,-51.278687c5.727875,13.822632 20.867859,24.619568 26.382874,3.24292c15.121948,-22.854614 54.49939,-0.261353 26.325806,18.714233c-19.854004,20.826111 -49.630219,41.445862 -51.065369,70.881958c18.87326,-3.025452 32.394928,-31.721619 54.011047,-39.31842c24.511017,-16.044922 53.933563,-23.746887 79.315338,-38.045288c26.628723,-15.839294 28.867126,-53.080322 0.065735,-65.763794c-0.212189,-25.560181 -8.415985,-60.997009 -45.415924,-54.551514l-4.8992,0.856445l-4.737091,1.341309l0,0l-0.000305,0z" fill="#000000"/>
  <path d="m100.481125,832.937622c-7.908821,-5.702454 -30.323792,3.911316 -25.901154,-12.071899c-4.542358,-7.308533 -20.926521,-14.628113 -7.227234,-22.808655c10.268936,-5.994568 -2.774872,-17.688782 9.615021,-22.706604c8.492744,-6.737976 14.00248,3.3974 9.42765,9.746155c2.759544,13.997803 22.585861,11.344971 32.503685,5.48822c10.001205,-2.927795 5.19577,-12.112854 -3.647964,-11.187378c-13.616432,-3.479065 -0.76091,-20.835266 7.729889,-10.185547c3.105972,10.289246 14.406174,19.619629 25.676514,11.822632c7.863892,-4.654968 1.215118,-10.745239 -5.695419,-11.062988c-10.077545,-3.947266 -3.199997,-20.839233 6.059509,-12.703552c4.557693,8.824463 9.762283,24.398499 24.030563,18.711304c9.716293,-4.822876 -0.607971,-12.721741 -6.210144,-15.384705c-6.847443,-10.583984 15.218246,-16.176636 13.019653,-2.835571c-1.609604,13.539001 12.986664,17.561035 24.96701,14.587402c21.899216,-2.421448 44.209793,-0.157104 65.624939,4.330688c21.022491,4.880005 41.888885,13.246643 57.41745,27.224182c7.514343,10.91272 -6.748474,26.639832 -20.069366,21.533752c-15.742828,-3.415283 -27.472321,-14.565308 -42.536316,-19.491638c-27.928864,-12.315063 -58.4617,-21.108765 -89.781952,-21.018738c-14.665863,2.406616 0.770004,22.531677 -13.193909,25.001526c-13.052643,-1.75116 -5.488708,-17.477783 0.995148,-20.607117c-5.038635,-9.546753 -25.047516,-1.395081 -24.030029,8.496216c1.870865,7.656799 -0.362793,22.257141 -12.100838,14.254822c-9.088875,-8.676575 12.576607,-11.547913 6.72953,-19.601013c-9.430901,-5.040405 -20.088348,4.904236 -26.981232,10.22406c-10.07209,9.251587 7.652237,18.209229 2.59671,27.860901c-2.144318,2.450134 -5.801369,2.94989 -9.017715,2.383545z" id="path7490" fill="#000000"/>
  <path d="m596.742981,884.459106c10.478699,-16.138428 35.445618,-12.752991 45.695618,-29.133606c-7.140137,-17.826538 -1.867798,-43.829346 19.014709,-50.055054c28.33429,-9.854004 57.743713,6.16095 78.025085,24.694092c13.994324,10.762024 28.008728,22.059265 44.687134,28.699158c12.830322,-14.86615 -6.505066,-31.76239 -20.622559,-36.569824c-30.72229,-15.61731 -67.365906,-25.747131 -87.963867,-54.906677c-9.057861,-14.889099 3.647827,-41.28418 23.256653,-35.425781c19.12439,0.656372 12.308716,-23.079834 6.596313,-32.323669c0.441467,-19.732544 27.501038,-26.26825 36.629761,-8.862c17.160034,10.816956 40.636353,-4.598267 56.288147,10.2547c42.52124,34.351807 58.636353,94.049377 45.442993,145.383179c-1.465942,8.51593 -5.644348,21.217285 -11.351868,7.35022c-6.158691,-13.67749 -0.6875,-30.029053 -9.274475,-43.001648c-5.461853,-14.479553 -11.837769,-33.979736 -29.876892,-36.812683c-16.175537,-1.426392 -20.089172,19.546753 -14.713745,31.112793c6.468567,15.164307 16.583984,28.638123 23.633179,43.605042c2.59137,10.138367 17.728149,23.476563 7.248413,32.08252c-12.62207,7.470032 -25.856689,-3.370544 -35.861023,-10.340332c-11.000366,-11.700623 -36.814697,-10.190613 -40.160217,7.414673c5.402771,14.104187 1.319458,29.845276 -15.689331,33.996948c-21.873962,7.345215 -3.621033,35.561707 14.942444,29.306946c23.352112,-5.384827 46.002075,-16.023682 70.466431,-16.056763c10.445801,16.207214 -22.692993,10.09314 -31.251892,17.55365c-37.17981,15.725586 -66.671448,48.756226 -108.746704,52.822266c-19.995056,2.085144 -32.118469,-16.708435 -41.043152,-31.127625c-10.897949,-14.091064 -31.722778,-21.08313 -35.630188,-39.897217c-4.933289,-13.530823 -2.467163,-31.021423 10.259705,-39.763672l-0.000671,0.000366zm314.529053,-22.365479c6.041016,-42.201965 24.140198,-85.26532 59.855835,-111.756836c15.655579,-10.982239 35.943604,-17.376648 55.159241,-12.937195c9.037109,4.100464 8.128906,17.461914 18.044678,20.366699c11.551758,0.164612 22.961914,-7.560059 34.576172,-2.985046c22.21936,8.348633 34.774902,36.880493 22.433838,57.441101c-7.125488,6.319153 -19.69458,15.995056 -11.831787,26.453125c7.946289,9.158142 9.833252,24.30658 0.556885,33.277161c-15.63501,20.129272 -44.83667,26.107422 -69.013611,19.487732c-25.398621,-4.592896 -51.772095,-2.253113 -76.283997,5.439148c-8.113586,1.331299 -18.589172,7.26593 -24.93457,6.691528c-1.04425,-11.112427 12.578674,-13.169556 20.276184,-17.371521c25.464539,-14.447571 54.81604,-24.174683 75.043274,-45.940796c6.61438,-8.900146 2.825684,-25.34375 -9.652039,-26.706116c-17.228821,-1.120483 -31.552429,9.84082 -46.072205,17.110168c-14.012329,8.813721 -26.525818,20.21051 -35.272766,34.110291c5.421204,13.597229 -23.808105,7.447388 -12.885132,-2.680115l0,0.000671zm32.974609,184.56189c-16.159485,-32.895325 -42.715881,-59.745422 -71.607178,-82.449219c-6.890564,17.668335 11.105164,30.746155 17.632446,45.408203c11.135986,13.415771 -12.407959,35.846313 -21.157349,16.838989c-20.074219,7.754639 2.700317,35.738037 -16.396606,46.645752c-15.912415,14.212036 -39.534851,-4.265137 -36.297913,-22.775635c-2.155518,-11.309082 18.586731,-28.583801 5.601685,-34.726196c-11.220764,9.958496 -34.991333,14.949707 -38.653381,-4.649597c-2.776062,-23.42926 19.800415,-41.333374 40.76825,-47.614075c16.686035,-15.045227 -16.354553,-21.034546 -26.289124,-12.75c-43.844116,9.831055 -81.614258,41.828247 -98.5224,82.198975c-6.789246,22.773926 5.718689,48.497559 26.812134,59.688843c14.570435,13.758179 43.716797,3.622803 51.850525,25.323853c4.84375,18.620239 15.604614,34.890503 31.733276,46.114868c24.185974,16.703979 61.992188,16.645264 82.111877,-6.218994c9.288391,-20.923218 36.504822,-22.483154 50.822571,-38.223633c14.404541,-21.65918 10.582458,-49.936279 1.591187,-72.811768l0,-0.000366zm164.616638,-13.187012c-6.70459,-16.681152 -23.137451,-27.196228 -39.50354,-33.820251c12.523193,-9.099121 25.606812,-25.405518 17.870483,-41.17218c-18.564941,-34.168335 -59.878052,-50.810669 -98.248901,-50.051392c-30.37561,-0.002686 -60.855652,6.095215 -88.85437,17.402222c-8.383606,10.199341 14.1474,0.103516 19.181274,0.773743c24.800659,-3.364136 50.86731,2.644348 71.560669,16.106689c13.143372,12.576599 -6.282593,14.943359 -14.883423,18.427612c-7.029785,12.810303 15.312012,16.330261 19.908325,26.865601c9.796448,8.261963 8.114624,27.431213 -7.094666,27.599915c-16.849487,0.431396 -25.323669,-16.409241 -36.798767,-25.55188c-17.832275,-17.555725 -39.415466,-33.370605 -64.997314,-37.668091c-4.236023,11.602539 16.087708,15.554199 20.563538,25.306335c25.730042,25.564331 43.288513,57.573914 56.728271,90.570251c8.590759,19.388794 23.568604,39.379761 46.752747,42.190063c14.512451,2.576904 33.336548,-4.269775 35.54834,-19.996582c8.07373,-12.52771 26.640991,3.297974 38.68042,-5.240601c16.325684,-3.884521 26.585449,-19.418823 26.372314,-35.254028c0.207642,-5.600342 -0.664551,-11.26416 -2.785645,-16.487427l0.000244,0z" id="path6656" fill="#000000"/>
  <path id="path6658" d="m810.492065,697.342285c8.993652,-7.790466 -6.168701,-29.87085 19.039185,-25.514221c11.526611,-4.474548 23.070618,-20.614258 35.972961,-7.119446c9.453918,10.115601 27.897339,-2.733459 35.811218,9.471436c10.627136,8.365845 -5.358215,13.793335 -15.371155,9.286804c-22.076538,2.718384 -17.892273,22.248962 -8.655701,32.018494c4.617554,9.851868 19.103699,5.118408 17.644165,-3.593262c5.486938,-13.413147 32.860229,-0.749573 16.064026,7.614502c-16.2276,3.059326 -30.942627,14.190857 -18.64563,25.293213c7.341553,7.746216 16.946411,1.196716 17.447937,-5.610657c6.225098,-9.92688 32.86615,-3.151978 20.035034,5.969055c-13.917542,4.489868 -38.47998,9.616516 -29.510498,23.672058c7.60675,9.570984 20.064026,-0.599121 24.263916,-6.117676c16.692688,-6.744995 25.513123,14.991333 4.472107,12.825562c-21.352539,-1.585571 -27.69635,12.792542 -23.00647,24.594299c3.819336,21.572266 0.248169,43.549805 -6.830078,64.645264c-7.696472,20.708618 -20.891846,41.26355 -42.936523,56.560303c-17.21051,7.402161 -42.014832,-6.647705 -33.961487,-19.769775c5.386414,-15.508057 22.971619,-27.062439 30.740784,-41.901306c19.422729,-27.512207 33.291992,-57.588989 33.149597,-88.441956c-3.795227,-14.446655 -35.535706,0.758789 -39.43103,-12.996704c2.761841,-12.858032 27.565002,-5.406982 32.500427,0.980347c15.056641,-4.963684 2.200684,-24.673645 -13.399719,-23.671326c-12.075928,1.842651 -35.102783,-0.357361 -22.481995,-11.920227c13.684204,-8.953186 18.213135,12.388916 30.913696,6.629089c7.949463,-9.2901 -7.734741,-19.788452 -16.124878,-26.57843c-14.591125,-9.921997 -28.718567,7.537964 -43.940247,2.557922c-3.864197,-2.112305 -4.652771,-5.714783 -3.759644,-8.883362z" fill="#000000"/>
  <path d="m488.23349,1049.25415c-26.774384,-2.290283 -50.133087,-17.3573 -59.512726,-36.539673c-6.772888,-12.21405 -12.836609,-25.517944 -10.768219,-38.967957c1.362122,-3.227905 2.531647,-10.363708 6.024445,-4.004639c16.561371,18.20636 37.706177,34.539856 63.819733,44.508057c15.894379,6.204956 34.598053,7.263123 51.845856,4.266174c7.433472,-1.499939 20.926575,-5.067078 15.818787,-12.793396c-4.696655,-5.864136 -14.813416,-6.290039 -22.662415,-8.142883c-22.447571,-3.548767 -47.2659,-2.455078 -66.877441,-12.956604c-9.903992,-5.111267 -17.687531,-12.143066 -26.143829,-18.512573c15.485565,-0.496704 32.810486,-1.666565 44.025421,-10.942871c6.502563,-4.851746 10.101593,-11.473206 16.482208,-16.404053c11.265839,-4.354126 24.146454,0.010986 34.61264,3.778625c16.039612,5.975159 29.920593,15.78656 37.049988,28.476563c9.319641,14.082214 17.139832,28.75946 23.351379,43.815247c1.50531,7.710022 -7.085083,13.708557 -14.030273,18.245056c-22.400452,13.182617 -51.653259,17.285278 -79.300049,17.002563c-4.592468,-0.106445 -9.178528,-0.37915 -13.735504,-0.827637l0,0zm-146.398682,122.31604c-29.307495,-12.316772 -50.05423,-36.234985 -52.579773,-61.905762c-2.048309,-18.739502 3.526855,-38.923462 19.726501,-53.467407c7.407562,-6.208496 17.264984,-10.827393 28.091156,-12.436279c-2.154541,10.470215 -9.33017,19.841187 -11.838226,30.266113c-5.368561,16.822754 -8.230774,35.600464 1.949646,51.709961c2.958557,5.452759 14.836945,17.216309 20.534027,7.764526c3.883026,-9.41394 2.815643,-19.54187 3.531494,-29.303345c0.985016,-23.087891 1.639191,-47.083496 13.963379,-68.567383c5.337708,-8.215088 14.032043,-16.540527 26.326263,-18.391357c11.745972,0.055664 19.334808,8.474976 25.17099,15.267578c14.531982,19.078613 12.038727,42.91333 2.261902,62.935791c-11.242859,25.526855 -36.973145,45.111938 -51.411407,69.363525c-0.841553,7.702271 -9.717773,14.506592 -19.269379,9.004761c-2.188568,-0.683594 -4.327942,-1.454834 -6.456573,-2.240479l0,-0.000244z" id="path6662" fill="#000000"/>
 </g>
</svg>